        <svg viewBox="0 0 28 32" fill="none" xmlns="http://www.w3.org/2000/svg">
            <path
                d="M28 0.122559L25.4491 28.6988L13.9829 31.8776L2.54817 28.7033L0 0.122559H28Z"
                fill="#264DE4"
            />
            <path
                d="M23.2653 26.8792L25.4452 2.45947H14V29.4479L23.2653 26.8792Z"
                fill="#2965F1"
            />
            <path
                d="M5.84163 13.0596L6.1558 16.5648H14V13.0596H5.84163Z"
                fill="#EBEBEB"
            />
            <path
                d="M14 5.96484H13.9879H5.21036L5.529 9.47019H14V5.96484Z"
                fill="#EBEBEB"
            />
            <path
                d="M14 25.8103V22.1633L13.9846 22.1674L10.0807 21.1133L9.83119 18.3176H7.9342H6.31241L6.8035 23.8215L13.9839 25.8148L14 25.8103Z"
                fill="#EBEBEB"
            />
            <path
                d="M18.3043 16.5649L17.8974 21.1111L13.9879 22.1663V25.8131L21.174 23.8215L21.2267 23.2293L22.0504 14.0009L22.1359 13.0597L22.7687 5.96484H13.9879V9.47019H18.9272L18.6083 13.0597H13.9879V16.5649H18.3043Z"
                fill="white"
            />
        </svg>