        <svg viewBox="0 0 28 28" fill="none" xmlns="http://www.w3.org/2000/svg">
            <path
                d="M9.33332 28.0001C11.9093 28.0001 14 25.9094 14 23.3334V18.6667H9.33332C6.75732 18.6667 4.66666 20.7574 4.66666 23.3334C4.66666 25.9094 6.75732 28.0001 9.33332 28.0001Z"
                fill="#0ACF83"
            />
            <path
                d="M4.66666 13.9999C4.66666 11.4239 6.75732 9.33325 9.33332 9.33325H14V18.6666H9.33332C6.75732 18.6666 4.66666 16.5759 4.66666 13.9999Z"
                fill="#A259FF"
            />
            <path
                d="M4.66666 4.66666C4.66666 2.09067 6.75732 0 9.33332 0H14V9.33333H9.33332C6.75732 9.33333 4.66666 7.24266 4.66666 4.66666Z"
                fill="#F24E1E"
            />
            <path
                d="M14 0H18.6667C21.2427 0 23.3333 2.09067 23.3333 4.66666C23.3333 7.24266 21.2427 9.33333 18.6667 9.33333H14V0Z"
                fill="#FF7262"
            />
            <path
                d="M23.3333 13.9999C23.3333 16.5759 21.2427 18.6666 18.6667 18.6666C16.0907 18.6666 14 16.5759 14 13.9999C14 11.4239 16.0907 9.33325 18.6667 9.33325C21.2427 9.33325 23.3333 11.4239 23.3333 13.9999Z"
                fill="#1ABCFE"
            />
        </svg>