   <svg viewBox="0 0 21 28" fill="none" xmlns="http://www.w3.org/2000/svg">
            <path
                d="M13.2743 10.1135L10.4739 12.7209L7.87445 7.4754L9.21732 4.45933C9.55673 3.85771 10.1118 3.84976 10.4512 4.45933L13.2743 10.1135Z"
                fill="#FFA000"
            />
            <path
                d="M10.4751 12.7197L0 22.4626L7.87563 7.47534L10.4751 12.7197Z"
                fill="#F57F17"
            />
            <path
                d="M16.3449 6.12581C16.8466 5.64791 17.3631 5.8091 17.4937 6.48792L20.2169 22.3311L11.1846 27.7537C10.8679 27.9308 10.0278 28 10.0278 28C10.0278 28 9.26389 27.9069 8.97103 27.7457L0 22.4628L16.3449 6.12581Z"
                fill="#FFCA28"
            />
            <path
                d="M7.87562 7.47547L0 22.4627L3.50986 0.556783C3.64154 -0.122032 4.02635 -0.191276 4.3737 0.410349L7.87562 7.47547Z"
                fill="#FFA000"
            />
        </svg>