<svg viewBox="0 0 28 28" fill="none" xmlns="http://www.w3.org/2000/svg">
            <path
                d="M27.4724 12.7527L15.2472 0.528045C14.5435 -0.176015 13.4016 -0.176015 12.6971 0.528045L10.1585 3.06669L13.3789 6.28707C14.1272 6.03419 14.9854 6.20384 15.582 6.80038C16.1813 7.40075 16.3498 8.26625 16.0908 9.01701L19.1944 12.1207C19.9452 11.862 20.8116 12.0294 21.4113 12.6301C22.2495 13.4679 22.2495 14.8258 21.4113 15.6642C20.5729 16.5027 19.215 16.5027 18.3762 15.6642C17.7458 15.0331 17.59 14.1072 17.9092 13.3305L15.0148 10.4362L15.0145 18.0529C15.2243 18.1566 15.416 18.2936 15.582 18.4587C16.4201 19.2965 16.4201 20.6545 15.582 21.4935C14.7436 22.3316 13.385 22.3316 12.5478 21.4935C11.7097 20.6545 11.7097 19.2966 12.5478 18.4588C12.7487 18.2578 12.9874 18.0987 13.2502 17.9905V10.3029C12.987 10.1954 12.7482 10.0362 12.5478 9.83461C11.9128 9.20044 11.7601 8.26866 12.0855 7.48891L8.91095 4.31402L0.528291 12.6961C-0.176097 13.4008 -0.176097 14.5429 0.528291 15.247L12.7538 27.4719C13.4576 28.176 14.5993 28.176 15.304 27.4719L27.4723 15.3038C28.1765 14.5994 28.1766 13.4567 27.4724 12.7527Z"
                fill="#DE4C36"
            />
        </svg>