<svg viewBox="0 0 50 18" fill="none" xmlns="http://www.w3.org/2000/svg">
            <path
                d="M24.8572 5.41553C24.9186 5.3562 24.9544 5.27534 24.9572 5.18994H24.9584C24.9998 3.56455 24.6236 2.29497 23.8412 1.41606C23.015 0.488379 21.7496 0.0120117 20.0798 0C18.413 0 16.9772 0.520752 15.9272 1.50601C14.9342 2.43838 14.3739 3.72905 14.3486 5.14014C14.306 7.57324 15.6806 9.12056 17.2136 10.6182C18.4004 11.8392 18.6182 12.4428 18.6062 13.1316C18.5918 13.9285 18.2126 14.3856 17.5652 14.3856C17.2982 14.3856 17.084 14.3027 16.9304 14.1396C16.6904 13.8876 16.5842 13.4322 16.6232 12.8227C16.6298 12.7819 16.6274 12.7402 16.6165 12.7005C16.6118 12.6835 16.6056 12.6671 16.5979 12.6513C16.5876 12.6302 16.5748 12.6104 16.5596 12.5922C16.5293 12.554 16.4908 12.523 16.447 12.5014C16.4033 12.4797 16.3552 12.4682 16.3064 12.4674H12.8024C12.717 12.4671 12.6348 12.5002 12.5733 12.5597C12.5118 12.619 12.4759 12.7 12.473 12.7854C12.3908 14.475 12.7844 15.7841 13.643 16.6764C14.489 17.5548 15.761 18 17.426 18C20.6864 18 22.829 15.963 22.8848 12.8118C22.919 10.863 22.208 9.38877 20.4338 7.72441C19.0862 6.41763 18.6128 5.65679 18.6278 4.81978C18.641 4.06919 19.0922 3.63955 19.7918 3.63955C20.4914 3.63955 20.8334 4.12075 20.8334 5.10894C20.8334 5.32793 21.0188 5.50796 21.2408 5.50796H24.6284C24.7138 5.50811 24.7958 5.47485 24.8572 5.41553Z"
                fill="#0AE448"
            />
            <path
                d="M14.2862 8.41494V8.40718H14.2844C14.2874 8.24399 14.174 8.09458 14.0132 8.07363C13.9994 8.07056 13.9844 8.07056 13.97 8.07056H7.77202V8.07773C7.61181 8.09692 7.48162 8.20562 7.44979 8.34902L6.8042 11.1533C6.79563 11.1911 6.79589 11.2304 6.80493 11.268C6.81398 11.3057 6.83159 11.3408 6.85642 11.3706C6.88876 11.4086 6.92901 11.4393 6.97442 11.4602C7.01979 11.4812 7.06923 11.4918 7.11922 11.4917H8.0636C8.1182 11.4917 8.18961 11.4996 8.21539 11.5332C8.24 11.5655 8.23821 11.6382 8.21243 11.7318C8.02881 12.4056 7.59199 13.1442 7.0496 13.5713C6.50662 13.9979 5.61021 14.2535 4.98201 13.8684C4.27343 13.4334 4.15342 12.3839 4.12401 11.6376C4.0622 10.0343 4.376 8.42461 4.99223 6.94263C5.43322 5.88179 6.26481 3.96782 7.67479 3.96782C8.47401 3.96782 8.876 4.62773 8.906 5.98374C8.90673 6.01406 8.91292 6.0438 8.92405 6.07163C8.9365 6.10269 8.9551 6.13125 8.97909 6.15542C9.02454 6.20112 9.08577 6.22778 9.15022 6.22969H12.8282C12.9142 6.22969 12.9967 6.196 13.0582 6.13594C13.1198 6.07588 13.1554 5.99414 13.1576 5.90815C13.1552 3.94731 12.7076 2.4498 11.8256 1.45503C10.9916 0.514746 9.79281 0.0437988 8.26582 0.0569824C3.24621 0.0569824 0.639223 5.12871 0.0871968 10.155C-0.218772 12.8322 0.286416 15.0545 1.50923 16.4118C2.43443 17.439 3.52522 17.9591 5.14281 17.9591C6.9434 17.9591 8.29102 17.5595 9.38423 16.7027C10.6694 15.6965 11.6426 14.0208 12.3614 11.5824C12.3694 11.5554 12.3858 11.5318 12.4083 11.515C12.4308 11.498 12.4581 11.4889 12.4862 11.4888H13.2656C13.448 11.4888 13.6064 11.3729 13.6412 11.2146L14.2862 8.41494Z"
                fill="#0AE448"
            />
            <path
                fillRule="evenodd"
                clipRule="evenodd"
                d="M35.4572 17.4072L35.4794 0.647314C35.4801 0.60542 35.4723 0.563672 35.4566 0.524707C35.4496 0.507275 35.4409 0.49043 35.4309 0.474609C35.4187 0.455127 35.4043 0.437109 35.388 0.420703C35.3744 0.406787 35.3594 0.394336 35.3435 0.38335C35.3251 0.370605 35.3053 0.359766 35.2844 0.35127C35.2456 0.335303 35.204 0.327246 35.162 0.327539H29.9192C29.7428 0.327539 29.6654 0.479297 29.615 0.579492L22.0238 17.3045V17.3076L22.0208 17.3118C21.9368 17.5175 22.0964 17.7378 22.319 17.7378H25.9838C26.1818 17.7378 26.3132 17.6777 26.3774 17.5529L27.1052 15.8039C27.1946 15.5706 27.2114 15.5489 27.4658 15.5489H30.9674C31.211 15.5489 31.2158 15.5537 31.2122 15.7919L31.1336 17.418C31.1334 17.4359 31.1346 17.4538 31.1373 17.4713C31.141 17.4949 31.1474 17.5181 31.1564 17.5403C31.172 17.5793 31.1953 17.6146 31.2248 17.6445C31.2543 17.6742 31.2895 17.6978 31.3282 17.7138C31.367 17.7299 31.4085 17.7379 31.4504 17.7378H35.153C35.1989 17.7384 35.2443 17.7289 35.286 17.71C35.3278 17.6911 35.3649 17.6634 35.3948 17.6285C35.4206 17.5983 35.4395 17.5629 35.4503 17.5247C35.4611 17.4864 35.4635 17.4464 35.4572 17.4072ZM28.9712 11.8116C28.9436 11.8116 28.916 11.8107 28.8884 11.8085C28.8756 11.8075 28.8631 11.8036 28.8519 11.7973C28.8408 11.7908 28.8311 11.782 28.8237 11.7715C28.8201 11.7665 28.8171 11.7611 28.8146 11.7555C28.812 11.7494 28.8101 11.7429 28.8089 11.7363C28.8076 11.7292 28.8072 11.722 28.8077 11.7148C28.8081 11.7091 28.809 11.7035 28.8104 11.6981C28.8146 11.6843 28.8197 11.6676 28.8262 11.6481C28.8309 11.6338 28.8365 11.618 28.8428 11.601L31.4684 5.1041C31.492 5.04009 31.5193 4.97739 31.55 4.91631C31.5926 4.82871 31.6442 4.82271 31.6604 4.8876C31.6742 4.9415 31.3592 11.5583 31.3592 11.5583C31.3346 11.8062 31.3232 11.8163 31.079 11.8368L28.9736 11.8128H28.9688L28.9712 11.8116Z"
                fill="#0AE448"
            />
            <path
                fillRule="evenodd"
                clipRule="evenodd"
                d="M40.1426 0.327539H42.926L42.929 0.325781C47.0342 0.325781 49.0838 2.18643 49.019 5.85835C48.9434 10.161 46.3214 13.323 42.3734 14.052C41.8124 14.1552 41.2418 14.1954 40.6718 14.1924L38.7656 14.1839C38.7344 14.1838 38.7043 14.1959 38.6819 14.2176C38.6594 14.2395 38.6464 14.2692 38.6456 14.3004C38.6452 14.3215 38.6508 14.3423 38.6618 14.3603C38.6727 14.3783 38.6885 14.393 38.7074 14.4023L38.9396 14.523L39.5396 14.8362L40.1426 15.15C40.2049 15.1825 40.2673 15.215 40.3298 15.2471C40.463 15.3168 40.5146 15.432 40.4846 15.5808L40.0622 17.487C40.0274 17.6459 39.8996 17.7378 39.7124 17.7378H36.2336C36.1837 17.7378 36.1345 17.727 36.0892 17.706C36.0439 17.6851 36.0037 17.6546 35.9714 17.6167C35.9465 17.5868 35.9288 17.5516 35.9197 17.5138C35.9105 17.476 35.9102 17.4368 35.9186 17.3988L39.7922 0.580811C39.8306 0.405615 39.9956 0.327539 40.1426 0.327539ZM41.9042 10.3356H41.9786C43.8056 10.2618 44.8016 8.10293 44.8382 6.00835C44.8592 4.79824 44.4176 4.08955 43.6256 4.06553H41.081C41.0502 4.06553 41.0206 4.07754 40.9985 4.09907C40.9764 4.12061 40.9636 4.1499 40.9628 4.18081C40.9623 4.2019 40.9677 4.22285 40.9784 4.24102C40.9891 4.25933 41.0047 4.27412 41.0234 4.28394C41.0234 4.28394 42.6326 5.13237 42.743 5.1936C42.8294 5.24092 42.8306 5.32134 42.8024 5.46123C42.8021 5.46431 42.5558 6.54683 42.2964 7.68823C42.0069 8.96206 41.701 10.3094 41.7026 10.3116C41.7074 10.3176 41.7368 10.3356 41.9042 10.3356Z"
                fill="#0AE448"
            />
        </svg>