<svg viewBox="0 0 28 28" fill="none" xmlns="http://www.w3.org/2000/svg">
            <path d="M28 0H0V28H28V0Z" fill="#F7DF1E" />
            <path
                d="M18.8089 21.8752C19.3729 22.7961 20.1067 23.473 21.4044 23.473C22.4947 23.473 23.1911 22.9281 23.1911 22.1752C23.1911 21.273 22.4755 20.9534 21.2755 20.4285L20.6178 20.1463C18.7191 19.3374 17.4578 18.3241 17.4578 16.1819C17.4578 14.2085 18.9613 12.7063 21.3111 12.7063C22.984 12.7063 24.1867 13.2885 25.0533 14.813L23.0044 16.1285C22.5533 15.3196 22.0667 15.001 21.3111 15.001C20.5404 15.001 20.052 15.4899 20.052 16.1285C20.052 16.9179 20.5409 17.2374 21.6698 17.7263L22.3275 18.0081C24.5631 18.9667 25.8253 19.9441 25.8253 22.1414C25.8253 24.5103 23.9644 25.8081 21.4653 25.8081C19.0218 25.8081 17.4431 24.6436 16.6707 23.1174L18.8089 21.8752ZM9.51421 22.1032C9.92755 22.8365 10.3035 23.4565 11.2075 23.4565C12.072 23.4565 12.6173 23.1183 12.6173 21.8032V12.8565H15.2484V21.8387C15.2484 24.5632 13.6511 25.8032 11.3195 25.8032C9.21288 25.8032 7.99288 24.713 7.37244 23.3999L9.51421 22.1032Z"
                fill="black"
            />
        </svg>