<svg viewBox="0 0 20 21" fill="none" xmlns="http://www.w3.org/2000/svg">
            <path
                d="M4.33264 0.417725H15.6674C18.0586 0.417725 20 2.35913 20 4.75037V16.0851C20 18.4763 18.0586 20.4177 15.6674 20.4177H4.33264C1.9414 20.4177 0 18.4763 0 16.0851V4.75037C0 2.35913 1.9414 0.417725 4.33264 0.417725Z"
                fill="#FFD02F"
            />
            <path
                d="M13.8976 2.91553H11.7017L13.5306 6.1295L9.50578 2.91553H7.30986L9.32229 6.84568L5.11395 2.91553H2.91803L5.11395 7.91701L2.91803 17.92H5.11395L9.32229 7.20082L7.30986 17.92H9.50578L13.5306 6.49055L11.7017 17.92H13.8976L17.9225 5.41331L13.8976 2.91553Z"
                fill="#050038"
            />
        </svg>