<svg viewBox="0 0 24 21" fill="none" xmlns="http://www.w3.org/2000/svg">
            <path
                d="M14.9217 14.0826H13.3633L13.2331 13.9525V10.3043C13.2331 9.65521 12.978 9.15212 12.1953 9.13454C11.7924 9.12397 11.3316 9.13454 10.8391 9.15387L10.7652 9.22952V10.7036V13.9507L10.635 14.0809H9.07652L8.94635 13.9507V7.71853L9.07652 7.58836H12.584C13.9472 7.58836 15.0519 8.69302 15.0519 10.0563V13.9525L14.9217 14.0826Z"
                fill="white"
            />
            <path
                d="M6.77747 17.5356H6.56287L5.49164 16.4644V16.2498L7.12928 14.6121H8.26385L8.41512 14.7634V15.898L6.77747 17.5356Z"
                fill="#32E6E2"
            />
            <path
                d="M5.49164 5.41949V5.20489L6.56287 4.13364H6.77747L8.41512 5.77128V6.90585L8.26385 7.05713H7.12928L5.49164 5.41949Z"
                fill="#32E6E2"
            />
            <path
                d="M6.99908 11.7467H0.765116L0.634949 11.6165V10.0545L0.765116 9.92432H6.99908L7.12925 10.0545V11.6165L6.99908 11.7467Z"
                fill="#32E6E2"
            />
            <path
                d="M23.2349 11.7467H17.0008L16.8707 11.6165V10.0545L17.0008 9.92432H23.2349L23.365 10.0545V11.6165L23.2349 11.7467Z"
                fill="#32E6E2"
            />
            <path
                d="M11.1011 5.64113V0.965649L11.2313 0.835482H12.7933L12.9235 0.965649V5.64113L12.7933 5.77128H11.2313L11.1011 5.64113Z"
                fill="#32E6E2"
            />
            <path
                d="M11.1011 20.7053V16.0299L11.2313 15.8997H12.7933L12.9235 16.0299V20.7053L12.7933 20.8355H11.2313L11.1011 20.7053Z"
                fill="#32E6E2"
            />
        </svg>