        <svg viewBox="0 0 20 21" fill="none" xmlns="http://www.w3.org/2000/svg">
            <g clipPath="url(#clip0_104_1221)">
                <mask
                    id="mask0_104_1221"
                    style="maskType: luminance"
                    maskUnits="userSpaceOnUse"
                    x="0"
                    y="0"
                    width="20"
                    height="21">
                    <path
                        d="M20 0.417725H0V20.4177H20V0.417725Z"
                        fill="white"
                    />
                </mask>
                <g mask="url(#mask0_104_1221)">
                    <path
                        d="M18.5663 8.60332C19.02 7.24144 18.8638 5.74957 18.1381 4.51082C17.0469 2.61082 14.8531 1.63332 12.7106 2.09332C11.7575 1.01957 10.3881 0.408945 8.95251 0.417695C6.76251 0.412695 4.81938 1.82269 4.14563 3.90644C2.73876 4.19457 1.52438 5.07519 0.813756 6.32332C-0.28562 8.21832 -0.0349947 10.6071 1.43376 12.2321C0.980006 13.5939 1.13626 15.0858 1.86188 16.3246C2.95313 18.2246 5.14688 19.2021 7.28938 18.7421C8.24188 19.8158 9.61188 20.4264 11.0475 20.4171C13.2388 20.4227 15.1825 19.0114 15.8563 16.9258C17.2631 16.6377 18.4775 15.7571 19.1881 14.5089C20.2863 12.6139 20.035 10.2271 18.5669 8.60207L18.5663 8.60332ZM11.0488 19.1102C10.1719 19.1114 9.32251 18.8046 8.64938 18.2427C8.68001 18.2264 8.73313 18.1971 8.76751 18.1758L12.75 15.8758C12.9538 15.7602 13.0788 15.5433 13.0775 15.3089V9.69457L14.7606 10.6664C14.7788 10.6752 14.7906 10.6927 14.7931 10.7127V15.3621C14.7906 17.4296 13.1163 19.1058 11.0488 19.1102ZM2.99626 15.6708C2.55688 14.9121 2.39876 14.0227 2.54938 13.1596C2.57876 13.1771 2.63063 13.2089 2.66751 13.2302L6.65001 15.5302C6.85188 15.6483 7.10188 15.6483 7.30438 15.5302L12.1663 12.7227V14.6664C12.1675 14.6864 12.1581 14.7058 12.1425 14.7183L8.11688 17.0427C6.32376 18.0752 4.03376 17.4614 2.99688 15.6708H2.99626ZM1.94813 6.97769C2.38563 6.21769 3.07626 5.63644 3.89876 5.33457C3.89876 5.36894 3.89688 5.42957 3.89688 5.47207V10.0727C3.89563 10.3064 4.02063 10.5233 4.22376 10.6389L9.08563 13.4458L7.40251 14.4177C7.38563 14.4289 7.36438 14.4308 7.34563 14.4227L3.31938 12.0964C1.53001 11.0602 0.916256 8.77082 1.94751 6.97832L1.94813 6.97769ZM15.7769 10.1958L10.915 7.38832L12.5981 6.41707C12.615 6.40582 12.6363 6.40394 12.655 6.41207L16.6813 8.73644C18.4738 9.77207 19.0881 12.0652 18.0525 13.8577C17.6144 14.6164 16.9244 15.1977 16.1025 15.5002V10.7621C16.1044 10.5283 15.98 10.3121 15.7775 10.1958H15.7769ZM17.4519 7.67457C17.4225 7.65644 17.3706 7.62519 17.3338 7.60394L13.3513 5.30394C13.1494 5.18582 12.8994 5.18582 12.6969 5.30394L7.83501 8.11144V6.16769C7.83376 6.14769 7.84313 6.12832 7.85876 6.11582L11.8844 3.79332C13.6775 2.75894 15.97 3.37457 17.0038 5.16832C17.4406 5.92582 17.5988 6.81269 17.4506 7.67457H17.4519ZM6.92001 11.1389L5.23626 10.1671C5.21813 10.1583 5.20626 10.1408 5.20376 10.1208V5.47144C5.20501 3.40144 6.88438 1.72394 8.95438 1.72519C9.83001 1.72519 10.6775 2.03269 11.3506 2.59269C11.32 2.60894 11.2675 2.63832 11.2325 2.65957L7.25001 4.95957C7.04626 5.07519 6.92126 5.29144 6.92251 5.52582L6.92001 11.1377V11.1389ZM7.83438 9.16769L10 7.91707L12.1656 9.16707V11.6677L10 12.9177L7.83438 11.6677V9.16769Z"
                        fill="white"
                    />
                </g>
            </g>
            <defs>
                <clipPath id="clip0_104_1221">
                    <rect
                        width="20"
                        height="20"
                        fill="white"
                        transform="translate(0 0.417725)"
                    />
                </clipPath>
            </defs>
        </svg>