<svg viewBox="0 0 28 16" fill="none" xmlns="http://www.w3.org/2000/svg">
            <path
                d="M8.57812 10.5622C7.18713 10.5622 6.05332 9.41942 6.05332 8.01842C6.05332 6.61742 7.18713 5.47461 8.57812 5.47461C9.96911 5.47461 11.1029 6.61742 11.1029 8.01842C11.1029 9.41842 9.96811 10.5622 8.57812 10.5622ZM2.5158 15.6128C1.12681 15.6098 -0.00399226 14.462 1.05944e-05 13.061C0.000803868 12.3891 0.267949 11.7448 0.7429 11.2695C1.21785 10.7942 1.86187 10.5265 2.53382 10.5252C3.92381 10.5282 5.05461 11.676 5.04961 13.078C5.04829 13.7497 4.78094 14.3935 4.30607 14.8686C3.83121 15.3436 3.18749 15.6112 2.5158 15.6128ZM25.4942 15.6128C24.8223 15.6142 24.1773 15.3492 23.7003 14.876C23.2234 14.4028 22.9533 13.7599 22.9494 13.088C22.9424 11.685 24.0682 10.5332 25.4561 10.5262C26.1277 10.5251 26.7723 10.7901 27.249 11.263C27.7257 11.736 27.9957 12.3785 28 13.05C28.008 14.452 26.8812 15.6048 25.4942 15.6128Z"
                fill="white"
            />
            <path
                d="M20.7618 5.62263C20.0753 5.40848 19.3418 5.31942 18.6223 5.24136C17.5095 5.12127 17.0662 4.68697 16.878 3.57217C16.772 2.94973 16.6239 2.31127 16.3547 1.74587C15.8413 0.670104 14.6384 0.18776 13.4306 0.462956C12.4099 0.696122 11.5622 1.71185 11.5152 2.75459C11.4612 3.94343 12.1417 4.95916 13.3105 5.30941C13.8659 5.47653 14.4563 5.55959 15.0357 5.60262C16.0995 5.67967 16.4547 5.9969 16.7419 6.48124C16.9241 6.78746 17.0992 7.08868 17.0992 7.99933C17.0992 8.91097 16.9221 9.21219 16.7419 9.5174C16.4547 10.0017 16.0995 10.318 15.0357 10.397C14.4553 10.4391 13.8649 10.5231 13.3105 10.6902C12.1417 11.0415 11.4612 12.0552 11.5152 13.2461C11.5622 14.2878 12.4109 15.3035 13.4306 15.5367C14.6384 15.8129 15.8413 15.3295 16.3547 14.2538C16.6249 13.6894 16.772 13.0499 16.878 12.4275C17.0672 11.3127 17.5105 10.8794 18.6223 10.7583C19.3428 10.6802 20.0753 10.5902 20.7618 10.376C21.8035 10.0508 22.43 9.07909 22.43 7.99933C22.43 6.92056 21.8035 5.94986 20.7618 5.62263Z"
                fill="#F44250"
            />
        </svg>