        <svg viewBox="0 0 30 30" fill="none" xmlns="http://www.w3.org/2000/svg">
            <path
                d="M15 17.6091C16.441 17.6091 17.6091 16.4409 17.6091 15C17.6091 13.559 16.441 12.3909 15 12.3909C13.559 12.3909 12.3909 13.559 12.3909 15C12.3909 16.4409 13.559 17.6091 15 17.6091Z"
                fill="#61DAFB"
            />
            <path
                d="M15 20.3454C22.732 20.3454 29 17.9522 29 15C29 12.0478 22.732 9.65454 15 9.65454C7.26801 9.65454 1 12.0478 1 15C1 17.9522 7.26801 20.3454 15 20.3454Z"
                stroke="#61DAFB"
            />
            <path
                d="M10.3707 17.6727C14.2367 24.3688 19.4433 28.6004 22 27.1243C24.5567 25.6482 23.4953 19.0233 19.6293 12.3272C15.7633 5.63114 10.5567 1.3995 7.99999 2.87561C5.4433 4.35171 6.5047 10.9766 10.3707 17.6727Z"
                stroke="#61DAFB"
            />
            <path
                d="M10.3707 12.3272C6.5047 19.0233 5.4433 25.6482 7.99999 27.1243C10.5567 28.6004 15.7633 24.3688 19.6293 17.6727C23.4953 10.9766 24.5567 4.35172 22 2.87561C19.4433 1.39951 14.2367 5.63114 10.3707 12.3272Z"
                stroke="#61DAFB"
            />
        </svg>