        <svg viewBox="0 0 35 28" fill="none" xmlns="http://www.w3.org/2000/svg">
            <g clipPath="url(#clip0_115_496)">
                <path
                    fillRule="evenodd"
                    clipRule="evenodd"
                    d="M29.1865 1.98426L29.9093 2.93592C30.0991 3.18709 30.0516 3.5471 29.8004 3.73688L29.033 4.32015C29.1725 4.69133 29.2618 5.08762 29.2981 5.49228L30.1716 5.61229C30.4842 5.65415 30.7019 5.94439 30.66 6.25696L30.4981 7.44304C30.4563 7.75561 30.166 7.97609 29.8535 7.93143L28.899 7.80027C28.7288 8.17144 28.5111 8.51192 28.2544 8.81611L28.7902 9.51939C28.98 9.77056 28.9297 10.1306 28.6786 10.3204L27.7269 11.0432C27.4757 11.2329 27.1157 11.1827 26.9259 10.9343L26.3427 10.1669C25.9687 10.3064 25.5752 10.3957 25.1677 10.432L25.0477 11.3055C25.0059 11.6181 24.7156 11.8357 24.4031 11.7939L23.217 11.632C22.9044 11.5902 22.6867 11.2999 22.7286 10.9873L22.8598 10.0329C22.4914 9.86266 22.1481 9.64498 21.8439 9.39102L21.1406 9.92406C20.8895 10.1138 20.5294 10.0664 20.3397 9.81522L19.6169 8.86356C19.4271 8.61239 19.4745 8.25237 19.7257 8.0626L20.4932 7.47932C20.3536 7.10536 20.2643 6.71186 20.228 6.30719L19.3545 6.18719C19.042 6.14533 18.8215 5.85508 18.8661 5.54252L19.028 4.35643C19.0727 4.04386 19.3601 3.82618 19.6727 3.86804L20.6271 3.99921C20.7974 3.63083 21.015 3.28756 21.269 2.98336L20.736 2.28008C20.5462 2.0317 20.5936 1.67169 20.8448 1.48192L21.7965 0.759102C22.0476 0.569328 22.4076 0.616771 22.5974 0.867943L23.1807 1.63541C23.5519 1.49587 23.9482 1.40657 24.3528 1.37028L24.4728 0.496767C24.5147 0.184199 24.8049 -0.0362735 25.1175 0.00558836L26.3036 0.167454C26.6162 0.209316 26.8366 0.499558 26.792 0.812127L26.6608 1.76658C27.032 1.93682 27.3725 2.1545 27.6794 2.41125L28.3827 1.87821C28.6339 1.68564 28.9939 1.73309 29.1865 1.98426ZM8.78022 18.7318V14.127H11.1524C11.5933 14.127 11.9282 14.1633 12.1599 14.2414C12.3915 14.3168 12.5813 14.4563 12.7208 14.66C12.8631 14.8665 12.9357 15.1149 12.9357 15.408C12.9357 15.6619 12.8799 15.8852 12.771 16.0694C12.6622 16.2564 12.5115 16.4071 12.3217 16.5215C12.2017 16.594 12.0343 16.6554 11.8222 16.7029C11.9924 16.7615 12.1152 16.8145 12.1906 16.8731C12.2436 16.9122 12.3189 16.9931 12.4166 17.1159C12.5143 17.2387 12.5813 17.3364 12.6148 17.4034L13.3069 18.7346H11.6994L10.9403 17.3308C10.8426 17.1494 10.7589 17.0294 10.6835 16.9764C10.5803 16.9066 10.4631 16.8703 10.3347 16.8703H10.2091V18.7346H8.78022V18.7318ZM13.7981 26.7497H11.1412L10.7589 28H8.36439L11.2194 20.4118H13.7869L16.6307 28H14.1748L13.7981 26.7497ZM13.3013 25.106L12.4724 22.3766L11.6408 25.106H13.3013ZM17.1833 20.4118H21.0848C21.936 20.4118 22.5723 20.6128 22.9937 21.0174C23.4151 21.4221 23.6272 21.9998 23.6272 22.7449C23.6272 23.5124 23.3956 24.1124 22.9351 24.545C22.4746 24.9776 21.7686 25.1925 20.8225 25.1925H19.5359V28H17.1833V20.4118ZM19.5359 23.6547H20.1136C20.5685 23.6547 20.8895 23.5766 21.0736 23.4175C21.2578 23.2612 21.3499 23.0575 21.3499 22.8147C21.3499 22.5775 21.269 22.3738 21.1099 22.2091C20.9509 22.0445 20.6494 21.9607 20.2085 21.9607H19.5359V23.6547ZM24.5761 20.4118H26.9287V28H24.5761V20.4118ZM10.2091 15.9968H10.8091C10.8733 15.9968 10.9989 15.9745 11.1859 15.9326C11.2808 15.9131 11.3589 15.8657 11.4175 15.7875C11.4789 15.7094 11.5068 15.6201 11.5068 15.5196C11.5068 15.3717 11.4594 15.2545 11.3645 15.1763C11.2696 15.0954 11.0938 15.0563 10.8342 15.0563H10.2091V15.9968ZM13.5804 14.127H17.3898V15.1093H15.0093V15.8433H17.2168V16.781H15.0093V17.688H17.4596V18.729H13.5804V14.127ZM17.7973 17.208L19.148 17.1243C19.1759 17.3448 19.2373 17.5094 19.3266 17.6238C19.4745 17.808 19.6838 17.9029 19.9545 17.9029C20.1555 17.9029 20.3146 17.8555 20.4234 17.7606C20.5322 17.6657 20.5881 17.5541 20.5881 17.4285C20.5881 17.3085 20.535 17.2024 20.4318 17.1076C20.3285 17.0127 20.0857 16.9262 19.7034 16.8396C19.081 16.7001 18.6373 16.5131 18.3694 16.2815C18.1015 16.0498 17.9675 15.754 17.9675 15.394C17.9675 15.1568 18.0373 14.9335 18.174 14.7242C18.3108 14.5149 18.5173 14.3475 18.7936 14.2275C19.0699 14.1075 19.4466 14.0488 19.9266 14.0488C20.5155 14.0488 20.962 14.1577 21.2718 14.3782C21.5788 14.5986 21.763 14.9447 21.8216 15.4247L20.4848 15.5056C20.4485 15.2963 20.3732 15.1428 20.2615 15.0507C20.1471 14.9559 19.988 14.9084 19.7899 14.9084C19.6252 14.9084 19.4996 14.9447 19.4159 15.0145C19.3322 15.0842 19.2903 15.1707 19.2903 15.2712C19.2903 15.3438 19.3266 15.408 19.3936 15.4694C19.4606 15.528 19.6169 15.5866 19.868 15.6396C20.4904 15.7736 20.9369 15.9103 21.2048 16.0471C21.4727 16.1838 21.6709 16.354 21.7909 16.5578C21.9137 16.7587 21.9751 16.9875 21.9751 17.2387C21.9751 17.5345 21.8941 17.8052 21.7295 18.0536C21.5676 18.302 21.3388 18.4918 21.0457 18.6202C20.7527 18.7485 20.3843 18.8127 19.9378 18.8127C19.1564 18.8127 18.6122 18.662 18.3108 18.3606C18.0094 18.0536 17.8391 17.6713 17.7973 17.208ZM22.1816 14.127H26.5101V15.2656H25.0589V18.7318H23.6356V15.2656H22.1816V14.127ZM17.3926 3.19825C16.8819 3.15918 16.3656 3.16476 15.8549 3.215C14.2837 3.3657 12.7571 3.93781 11.4957 4.91738C10.0361 6.04765 8.92813 7.73887 8.50114 9.97987L8.36718 10.6804L7.66948 10.8032C6.98574 10.9232 6.37456 11.0878 5.83872 11.2971C5.31964 11.4981 4.85637 11.7464 4.4517 12.0395C4.12797 12.2739 3.84889 12.5362 3.61167 12.8209C2.8777 13.7 2.53722 14.8024 2.54559 15.9187C2.55396 17.0517 2.92235 18.196 3.6033 19.1365C3.85726 19.4853 4.1503 19.8062 4.48519 20.0853C4.82567 20.3672 5.20801 20.6016 5.63779 20.7774C5.88059 20.8779 6.14013 20.9616 6.41084 21.0286V23.1189C5.85268 23.0184 5.33917 22.8677 4.85916 22.6696C4.22565 22.4073 3.6647 22.0696 3.17073 21.6565C2.70188 21.2658 2.29163 20.8221 1.94278 20.3393C1.01345 19.0555 0.511105 17.4871 0.499942 15.9243C0.488779 14.3447 0.979958 12.7735 2.04046 11.5009C2.38373 11.0878 2.78839 10.7083 3.25166 10.3734C3.79028 9.98266 4.40705 9.65335 5.10475 9.38264C5.58476 9.19566 6.09827 9.03938 6.63968 8.91379C7.25365 6.47464 8.56254 4.59644 10.2454 3.29314C11.8194 2.07356 13.7143 1.36191 15.6651 1.17493C16.6893 1.07725 17.7275 1.1219 18.7433 1.31168C18.721 1.40377 18.7015 1.49587 18.6903 1.59076L18.6875 1.6075C18.668 1.76658 18.6596 1.92565 18.668 2.08752C18.4531 2.17124 18.2522 2.28566 18.0708 2.4252L18.0624 2.43079C17.7917 2.63451 17.5628 2.89685 17.3926 3.19825ZM32.1587 8.55657C32.315 8.6989 32.4657 8.84681 32.6136 9.00589C32.9122 9.32683 33.1941 9.68963 33.4592 10.0943C34.3522 11.4674 34.8099 13.3009 34.7904 15.0954C34.7709 16.8564 34.2964 18.609 33.3252 19.8983C32.6917 20.7384 31.8796 21.4249 30.9056 21.9691C30.2386 22.3431 29.4879 22.6529 28.6702 22.904V20.7412C29.1111 20.5765 29.5214 20.3923 29.8981 20.183C30.6321 19.7728 31.2321 19.2732 31.6814 18.6732C32.3791 17.7439 32.7224 16.4294 32.7364 15.0814C32.7531 13.6665 32.407 12.246 31.7345 11.2134C31.5419 10.9148 31.3298 10.6469 31.1065 10.4069C31.02 10.3148 30.9335 10.2283 30.8442 10.1445C30.8582 10.005 30.8637 9.86266 30.8554 9.72033C31.0703 9.63661 31.2712 9.52218 31.4526 9.38264L31.461 9.37706C31.7484 9.15659 31.9884 8.87751 32.1587 8.55657ZM25.0812 3.57222C26.3678 3.74804 27.2664 4.93412 27.0906 6.22068C26.9148 7.50723 25.7287 8.40866 24.4421 8.23284C23.1556 8.05702 22.2542 6.87093 22.4328 5.58438C22.6114 4.29782 23.7947 3.3964 25.0812 3.57222Z"
                    fill="#00ABA3"
                />
            </g>
            <defs>
                <clipPath id="clip0_115_496">
                    <rect
                        width="34.2932"
                        height="28"
                        fill="white"
                        transform="translate(0.5)"
                    />
                </clipPath>
            </defs>
        </svg>