        <svg
            xmlns="http://www.w3.org/2000/svg"
            xmlnsXlink="http://www.w3.org/1999/xlink"
            width="20"
            zoomAndPan="magnify"
            viewBox="0 0 36 36.000001"
            height="48"
            preserveAspectRatio="xMidYMid meet"
            version="1.0">
            <defs>
                <clipPath id="d000807558">
                    <path
                        d="M 0.488281 0 L 35.511719 0 L 35.511719 35.027344 L 0.488281 35.027344 Z M 0.488281 0 "
                        clipRule="nonzero"
                    />
                </clipPath>
            </defs>
            <g clipPath="url(#d000807558)">
                <path
                    fill="#cc499c"
                    d="M 18 0 C 27.671875 0 35.511719 7.839844 35.511719 17.511719 C 35.511719 27.1875 27.671875 35.027344 18 35.027344 C 8.328125 35.027344 0.488281 27.1875 0.488281 17.511719 C 0.488281 7.839844 8.328125 0 18 0 "
                    fillOpacity="1"
                    fillRule="evenodd"
                />
            </g>
            <path
                fill="#ffffff"
                d="M 14.519531 23.347656 C 14.773438 24.289062 14.746094 25.167969 14.484375 25.964844 C 14.453125 26.054688 14.421875 26.140625 14.386719 26.226562 C 14.351562 26.3125 14.3125 26.398438 14.273438 26.484375 C 14.070312 26.902344 13.796875 27.296875 13.464844 27.660156 C 12.445312 28.773438 11.023438 29.191406 10.414062 28.839844 C 9.757812 28.457031 10.085938 26.890625 11.265625 25.644531 C 12.535156 24.300781 14.363281 23.441406 14.363281 23.441406 L 14.359375 23.433594 C 14.410156 23.40625 14.464844 23.378906 14.519531 23.347656 Z M 28.984375 7.496094 C 28.191406 4.386719 23.035156 3.363281 18.152344 5.097656 C 15.25 6.128906 12.105469 7.75 9.84375 9.863281 C 7.15625 12.378906 6.726562 14.566406 6.902344 15.480469 C 7.527344 18.710938 11.949219 20.820312 13.765625 22.382812 L 13.765625 22.394531 C 13.230469 22.65625 9.304688 24.640625 8.386719 26.671875 C 7.417969 28.8125 8.542969 30.347656 9.285156 30.554688 C 11.589844 31.195312 13.953125 30.042969 15.222656 28.148438 C 16.449219 26.320312 16.347656 23.960938 15.8125 22.785156 C 16.550781 22.59375 17.40625 22.503906 18.496094 22.632812 C 21.566406 22.992188 22.167969 24.910156 22.054688 25.710938 C 21.9375 26.515625 21.292969 26.957031 21.078125 27.089844 C 20.863281 27.222656 20.796875 27.269531 20.816406 27.367188 C 20.84375 27.511719 20.941406 27.507812 21.125 27.476562 C 21.378906 27.433594 22.738281 26.824219 22.796875 25.339844 C 22.871094 23.460938 21.066406 21.355469 17.875 21.410156 C 16.558594 21.433594 15.734375 21.558594 15.136719 21.78125 C 15.09375 21.730469 15.046875 21.679688 15 21.628906 C 13.027344 19.523438 9.378906 18.035156 9.535156 15.203125 C 9.589844 14.175781 9.949219 11.464844 16.542969 8.175781 C 21.949219 5.484375 26.273438 6.226562 27.023438 7.867188 C 28.089844 10.214844 24.710938 14.574219 19.097656 15.203125 C 16.960938 15.441406 15.832031 14.613281 15.554688 14.304688 C 15.257812 13.980469 15.214844 13.964844 15.105469 14.027344 C 14.925781 14.125 15.039062 14.414062 15.105469 14.585938 C 15.273438 15.019531 15.960938 15.792969 17.132812 16.179688 C 18.164062 16.515625 20.675781 16.703125 23.710938 15.527344 C 27.109375 14.214844 29.765625 10.554688 28.984375 7.496094 "
                fillOpacity="1"
                fillRule="nonzero"
            />
        </svg>