 <svg viewBox="0 0 28 18" fill="none" xmlns="http://www.w3.org/2000/svg">
            <path
                d="M14 0.602295C10.2666 0.602295 7.93328 2.46849 6.99983 6.20053C8.4 4.33434 10.0334 3.63478 11.8999 4.10115C12.965 4.36725 13.7262 5.13999 14.569 5.99501C15.9415 7.38783 17.53 8.99983 21.0002 8.99983C24.7333 8.99983 27.0669 7.13363 28 3.40124C26.6002 5.26744 24.9668 5.96735 23.0999 5.50097C22.0352 5.23487 21.274 4.46214 20.4312 3.60712C19.0587 2.2143 17.4698 0.602295 14 0.602295ZM6.99983 8.99983C3.26673 8.99983 0.9331 10.866 0 14.5984C1.39982 12.7322 3.03319 12.0323 4.90009 12.499C5.96484 12.7655 6.72602 13.5379 7.56879 14.3925C8.9413 15.7854 10.5302 17.3977 14 17.3977C17.7335 17.3977 20.0667 15.5315 21.0002 11.7991C19.6 13.6653 17.9666 14.3652 16.1001 13.8985C15.035 13.6328 14.2738 12.8597 13.431 12.005C12.0585 10.6122 10.47 8.99983 6.99983 8.99983Z"
                fill="#06B6D4"
            />
        </svg>