        <svg
            id="logosandtypes_com"
            data-name="logosandtypes com"
            xmlns="http://www.w3.org/2000/svg"
            viewBox="0 0 150 150">
            <defs>
                <style>
                    {`.cls-1 {
        fill: #089949;
      }
      .cls-2 {
        fill: none;
      }`}
                </style>
            </defs>
            <g id="Layer_3" data-name="Layer 3">
                <path
                    id="Layer_3-2"
                    data-name="Layer 3-2"
                    className="cls-2"
                    d="M0,0H150V150H0V0Z"
                />
            </g>
            <g>
                <path
                    className="cls-1"
                    d="M118.3,13.14H36.37c-7.53,0-13.64,6.11-13.68,13.64V124.24c.04,7.57,6.15,13.68,13.68,13.68h10.41c2.02,0,3.66-1.64,3.66-3.66v-27.58h27.02c7.53,0,13.64-6.11,13.64-13.64v-12.78c0-2.02-1.64-3.66-3.66-3.66h-30.68c-7.53,0-13.64,6.11-13.64,13.64v40.36h-6.8c-3.49,0-6.33-2.84-6.33-6.33V26.78c0-3.49,2.84-6.33,6.33-6.33H118.26c3.49,0,6.33,2.84,6.33,6.33V124.24c0,3.49-2.84,6.33-6.33,6.33H61.42c-2.02,0-3.66,1.64-3.66,3.66s1.64,3.66,3.66,3.66h56.89c7.53,0,13.64-6.11,13.64-13.64V26.78c0-7.53-6.11-13.64-13.64-13.64ZM50.44,90.29c0-3.49,2.84-6.33,6.33-6.33h27.02v9.08c0,3.49-2.84,6.33-6.33,6.33h-27.02v-9.08Z"
                />
                <path
                    className="cls-1"
                    d="M111.5,37.15c0-2.02-1.64-3.66-3.66-3.66H56.77c-7.53,0-13.64,6.11-13.64,13.64v12.74c0,2.02,1.64,3.66,3.66,3.66h51.08c7.53,0,13.64-6.11,13.64-13.64v-12.74h0Zm-7.32,12.74c0,3.49-2.84,6.33-6.33,6.33H50.44v-9.08c0-3.49,2.84-6.33,6.33-6.33h47.42v9.08h0Z"
                />
            </g>
        </svg>