<svg width="17" height="14" viewBox="0 0 17 14" fill="none" xmlns="http://www.w3.org/2000/svg">
<path d="M16.0383 7.3674L10.4133 12.9924C10.2372 13.1685 9.99829 13.2675 9.74922 13.2675C9.50015 13.2675 9.26128 13.1685 9.08516 12.9924C8.90904 12.8163 8.81009 12.5774 8.81009 12.3283C8.81009 12.0793 8.90904 11.8404 9.08516 11.6643L13.1094 7.64162H1.625C1.37636 7.64162 1.1379 7.54284 0.962087 7.36703C0.786272 7.19121 0.6875 6.95276 0.6875 6.70412C0.6875 6.45548 0.786272 6.21702 0.962087 6.0412C1.1379 5.86539 1.37636 5.76662 1.625 5.76662H13.1094L9.08672 1.74162C8.9106 1.5655 8.81166 1.32663 8.81166 1.07755C8.81166 0.828482 8.9106 0.589612 9.08672 0.413491C9.26284 0.237371 9.50171 0.138428 9.75078 0.138428C9.99985 0.138428 10.2387 0.237371 10.4148 0.413491L16.0398 6.03849C16.1273 6.12571 16.1966 6.22933 16.2438 6.34341C16.2911 6.45749 16.3153 6.57979 16.3152 6.70327C16.315 6.82675 16.2905 6.94899 16.243 7.06296C16.1955 7.17693 16.1259 7.28039 16.0383 7.3674Z" fill="#010101"/>
</svg>
